<?xml version="1.0" standalone="no"?>
<!DOCTYPE svg PUBLIC "-//W3C//DTD SVG 20010904//EN"
 "http://www.w3.org/TR/2001/REC-SVG-20010904/DTD/svg10.dtd">
<svg version="1.0" xmlns="http://www.w3.org/2000/svg"
 viewBox="0 0 2600.000000 2600.000000"
 preserveAspectRatio="xMidYMid meet">
<metadata>
Created by potrace 1.15, written by Peter Selinger 2001-2017
</metadata>
<g transform="translate(0.000000,2600.000000) scale(0.100000,-0.100000)"
fill="#000000" stroke="none">
<path d="M10032 21183 c-20 -10 -576 -604 -1425 -1522 -766 -828 -1411 -1527
-1434 -1555 -55 -64 -74 -136 -51 -195 12 -31 2756 -4060 2845 -4178 40 -52
95 -73 196 -73 l87 0 0 -370 0 -370 -2648 -2 -2648 -3 -37 -25 c-20 -13 -46
-43 -59 -65 l-23 -40 0 -5090 c0 -2799 3 -5102 7 -5117 12 -40 57 -89 103
-109 39 -18 305 -19 8220 -19 7915 0 8181 1 8220 19 50 22 91 70 105 120 7 26
9 1656 8 5117 l-3 5079 -23 40 c-13 22 -39 52 -59 65 l-37 25 -2648 3 -2648 2
0 369 0 369 99 4 c92 3 102 5 141 33 32 23 350 483 1460 2109 825 1208 1425
2095 1432 2118 14 49 -1 117 -37 164 -13 17 -658 717 -1434 1556 -938 1015
-1421 1530 -1444 1541 -32 16 -273 17 -3134 17 -2845 0 -3101 -2 -3131 -17z
m1708 -360 c0 -5 -297 -604 -659 -1333 l-659 -1325 -1347 -3 -1347 -2 34 38
c18 22 573 622 1232 1335 l1199 1297 773 0 c426 0 774 -3 774 -7z m3091 -1326
c362 -730 659 -1329 659 -1332 0 -3 -1046 -5 -2325 -5 -1279 0 -2325 2 -2325
5 0 2 221 449 491 992 270 543 567 1142 660 1331 l169 342 1006 -2 1006 -3
659 -1328z m2538 1 l1232 -1333 -1342 -3 c-739 -1 -1346 1 -1350 5 -8 10
-1319 2650 -1319 2657 0 4 348 6 774 6 l774 0 1231 -1332z m-6300 -3561 c366
-1013 671 -1857 678 -1874 l13 -33 -774 0 -773 0 -1259 1843 c-692 1013 -1269
1857 -1282 1875 l-24 32 1378 0 1379 0 664 -1843z m4461 1840 c0 -1 -297 -826
-660 -1831 -494 -1370 -660 -1839 -660 -1872 l0 -44 -1044 0 -1044 0 0 43 c0
31 -169 511 -657 1862 -362 1001 -660 1825 -662 1832 -4 11 446 13 2361 13
1301 0 2366 -1 2366 -3z m3118 -44 c-19 -27 -596 -870 -1282 -1875 l-1248
-1828 -773 0 -772 0 181 503 c100 276 404 1120 676 1874 l495 1373 1378 0
1379 0 -34 -47z m-2938 -4443 l0 -370 -2545 0 -2545 0 0 370 0 370 2545 0
2545 0 0 -370z m4650 -1245 l-505 -505 -6690 0 -6690 0 -505 505 -505 505
7700 0 7700 0 -505 -505z m-14648 -262 l498 -498 0 -3595 0 -3595 -505 -505
-505 -505 0 4598 c0 2528 3 4597 7 4597 5 0 232 -224 505 -497z m15418 -4100
l0 -4598 -505 505 -505 505 0 3595 0 3595 497 497 c274 274 501 498 505 498 5
0 8 -2069 8 -4597z m-770 -4358 l505 -505 -7700 0 -7700 0 505 505 505 505
6690 0 6690 0 505 -505z"/>
</g>
</svg>
